<svg width="22" height="20" viewBox="0 0 22 20" fill="none" xmlns="http://www.w3.org/2000/svg">
<path d="M0.207253 9.52996C0.207253 9.25297 0.337092 8.95867 0.596769 8.75093L9.61621 1.17702C10.4385 0.484551 11.4859 0.484551 12.2995 1.17702L16.212 4.46626V3.02073C16.212 2.63121 16.4803 2.38019 16.8699 2.38019H18.2202C18.6097 2.38019 18.8694 2.63121 18.8694 3.02073V6.69083L21.3103 8.74228C21.5613 8.95867 21.6912 9.22701 21.6912 9.54727C21.6912 10.1013 21.267 10.4561 20.7044 10.4561C20.4101 10.4561 20.1418 10.309 19.9081 10.1099L11.3734 2.94283C11.105 2.71777 10.8021 2.71777 10.5424 2.94283L1.99037 10.1099C1.75666 10.309 1.48833 10.4561 1.20268 10.4561C0.588113 10.4561 0.207253 10.0407 0.207253 9.52996ZM3.08101 17.3462V10.9409L10.4039 4.80384C10.7415 4.52685 11.157 4.5182 11.4945 4.80384L18.8174 10.9495V17.3462C18.8174 18.6187 17.9951 19.4063 16.6708 19.4063H5.22767C3.90332 19.4063 3.08101 18.6187 3.08101 17.3462ZM13.243 17.4761V11.9363C13.243 11.5295 12.9834 11.2611 12.5679 11.2611H9.33057C8.92374 11.2611 8.64675 11.5295 8.64675 11.9363V17.4761H13.243Z" fill="#5F9DF7"/>
</svg>
