<svg width="89" height="23" viewBox="0 0 89 23" fill="none" xmlns="http://www.w3.org/2000/svg">
<path d="M20.88 21.475C20.88 21.845 20.79 22.12 20.61 22.3C20.44 22.48 20.175 22.57 19.815 22.57C19.495 22.57 19.19 22.48 18.9 22.3C18.61 22.13 18.32 21.93 18.03 21.7C17.75 21.47 17.48 21.27 17.22 21.1C16.97 20.92 16.73 20.83 16.5 20.83C16.28 20.83 16.025 20.92 15.735 21.1C15.455 21.27 15.115 21.47 14.715 21.7C14.315 21.92 13.83 22.115 13.26 22.285C12.7 22.465 12.015 22.555 11.205 22.555C9.585 22.555 8.135 22.3 6.855 21.79C5.585 21.27 4.5 20.53 3.6 19.57C2.71 18.61 2.03 17.46 1.56 16.12C1.1 14.77 0.87 13.26 0.87 11.59C0.87 9.99 1.145 8.51 1.695 7.15C2.245 5.79 3.015 4.61 4.005 3.61C4.995 2.6 6.155 1.82 7.485 1.27C8.815 0.709999 10.265 0.429999 11.835 0.429999C12.805 0.429999 13.595 0.514999 14.205 0.684998C14.815 0.844998 15.305 1.01 15.675 1.18C16.055 1.34 16.37 1.42 16.62 1.42C16.9 1.42 17.145 1.345 17.355 1.195C17.575 1.035 17.79 0.879998 18 0.729998C18.22 0.569999 18.475 0.49 18.765 0.49C18.995 0.49 19.185 0.565 19.335 0.715C19.485 0.854999 19.61 1.105 19.71 1.465L21.195 7C21.285 7.29 21.255 7.545 21.105 7.765C20.955 7.985 20.74 8.135 20.46 8.215C20.15 8.285 19.87 8.265 19.62 8.155C19.37 8.035 19.175 7.82 19.035 7.51C18.495 6.22 17.885 5.22 17.205 4.51C16.535 3.79 15.83 3.29 15.09 3.01C14.35 2.72 13.605 2.575 12.855 2.575C11.795 2.575 10.885 2.89 10.125 3.52C9.375 4.15 8.8 5.055 8.4 6.235C8 7.415 7.8 8.825 7.8 10.465C7.8 12.495 8.035 14.19 8.505 15.55C8.985 16.91 9.64 17.935 10.47 18.625C11.3 19.305 12.24 19.645 13.29 19.645C13.54 19.645 13.755 19.605 13.935 19.525C14.125 19.445 14.28 19.335 14.4 19.195C14.53 19.055 14.625 18.89 14.685 18.7C14.745 18.51 14.775 18.305 14.775 18.085V14.425C14.775 14.215 14.72 14.06 14.61 13.96C14.51 13.85 14.31 13.755 14.01 13.675L13.305 13.48C13.015 13.4 12.79 13.285 12.63 13.135C12.47 12.975 12.39 12.78 12.39 12.55C12.39 12.28 12.485 12.065 12.675 11.905C12.865 11.745 13.16 11.665 13.56 11.665H21.42C21.83 11.665 22.13 11.745 22.32 11.905C22.51 12.065 22.605 12.275 22.605 12.535C22.605 12.765 22.545 12.95 22.425 13.09C22.305 13.23 22.125 13.35 21.885 13.45L21.51 13.585C21.32 13.655 21.165 13.755 21.045 13.885C20.935 14.005 20.88 14.185 20.88 14.425V21.475ZM33.056 0.429999C34.796 0.429999 36.356 0.699999 37.736 1.24C39.116 1.77 40.291 2.53 41.261 3.52C42.231 4.5 42.971 5.675 43.481 7.045C43.991 8.405 44.246 9.925 44.246 11.605C44.246 13.145 43.991 14.58 43.481 15.91C42.981 17.24 42.251 18.405 41.291 19.405C40.341 20.405 39.186 21.185 37.826 21.745C36.476 22.295 34.956 22.57 33.266 22.57C31.536 22.57 29.981 22.305 28.601 21.775C27.221 21.235 26.041 20.475 25.061 19.495C24.091 18.505 23.351 17.325 22.841 15.955C22.331 14.585 22.076 13.055 22.076 11.365C22.076 9.835 22.326 8.405 22.826 7.075C23.336 5.745 24.071 4.585 25.031 3.595C25.991 2.595 27.146 1.82 28.496 1.27C29.846 0.709999 31.366 0.429999 33.056 0.429999ZM37.181 15.82C37.181 14.46 37.071 13.13 36.851 11.83C36.631 10.52 36.336 9.295 35.966 8.155C35.596 7.015 35.176 6.015 34.706 5.155C34.236 4.285 33.741 3.605 33.221 3.115C32.701 2.615 32.181 2.365 31.661 2.365C31.121 2.365 30.666 2.55 30.296 2.92C29.936 3.28 29.661 3.815 29.471 4.525C29.291 5.225 29.201 6.1 29.201 7.15C29.201 8.51 29.306 9.845 29.516 11.155C29.736 12.465 30.031 13.69 30.401 14.83C30.771 15.97 31.191 16.975 31.661 17.845C32.141 18.715 32.636 19.4 33.146 19.9C33.666 20.39 34.186 20.635 34.706 20.635C35.256 20.635 35.711 20.455 36.071 20.095C36.441 19.735 36.716 19.2 36.896 18.49C37.086 17.77 37.181 16.88 37.181 15.82ZM58.7616 14.5L56.7816 14.86L61.1466 2.875C61.4166 2.155 61.7216 1.665 62.0616 1.405C62.4116 1.135 62.8916 0.999999 63.5016 0.999999H69.4266C69.8266 0.999999 70.1216 1.085 70.3116 1.255C70.5016 1.415 70.5966 1.635 70.5966 1.915C70.5966 2.175 70.5316 2.39 70.4016 2.56C70.2816 2.72 70.1116 2.84 69.8916 2.92L69.2916 3.13C68.9916 3.23 68.7866 3.365 68.6766 3.535C68.5766 3.705 68.5366 3.965 68.5566 4.315L69.5466 18.76C69.5666 19.13 69.6266 19.39 69.7266 19.54C69.8266 19.68 70.0016 19.79 70.2516 19.87L70.8516 20.08C71.0616 20.15 71.2216 20.265 71.3316 20.425C71.4516 20.585 71.5116 20.785 71.5116 21.025C71.5116 21.305 71.4166 21.54 71.2266 21.73C71.0366 21.91 70.7416 22 70.3416 22H61.8366C61.4366 22 61.1416 21.92 60.9516 21.76C60.7616 21.59 60.6666 21.365 60.6666 21.085C60.6666 20.845 60.7166 20.64 60.8166 20.47C60.9266 20.3 61.1166 20.17 61.3866 20.08L61.9866 19.87C62.2866 19.77 62.4866 19.64 62.5866 19.48C62.6966 19.32 62.7416 19.075 62.7216 18.745L61.5966 3.655L63.3816 3.46L57.3966 19.915C57.1366 20.615 56.8716 21.065 56.6016 21.265C56.3316 21.455 56.0116 21.55 55.6416 21.55C55.3716 21.55 55.1266 21.52 54.9066 21.46C54.6866 21.39 54.4766 21.235 54.2766 20.995C54.0866 20.745 53.8866 20.355 53.6766 19.825L47.4816 4.03L49.1916 3.67L48.0366 18.115C47.9966 18.605 48.1116 18.985 48.3816 19.255C48.6516 19.525 48.9866 19.765 49.3866 19.975L49.7916 20.2C49.9516 20.28 50.0766 20.39 50.1666 20.53C50.2566 20.66 50.3016 20.83 50.3016 21.04C50.3016 21.33 50.2066 21.565 50.0166 21.745C49.8366 21.915 49.5466 22 49.1466 22H44.5866C44.1966 22 43.9066 21.92 43.7166 21.76C43.5266 21.59 43.4316 21.365 43.4316 21.085C43.4316 20.805 43.5066 20.59 43.6566 20.44C43.8066 20.29 43.9966 20.155 44.2266 20.035L44.5416 19.885C44.8816 19.735 45.1766 19.52 45.4266 19.24C45.6766 18.96 45.8216 18.58 45.8616 18.1L46.8966 5.11C46.9566 4.49 46.9316 4.035 46.8216 3.745C46.7116 3.445 46.5016 3.24 46.1916 3.13L45.5916 2.92C45.3516 2.83 45.1716 2.705 45.0516 2.545C44.9316 2.385 44.8716 2.175 44.8716 1.915C44.8716 1.305 45.2616 0.999999 46.0416 0.999999H51.9366C52.5066 0.999999 52.9616 1.12 53.3016 1.36C53.6416 1.6 53.9566 2.085 54.2466 2.815L58.7616 14.5ZM80.2612 22.435C79.5512 22.435 78.9412 22.355 78.4312 22.195C77.9312 22.045 77.5112 21.895 77.1712 21.745C76.8412 21.595 76.5662 21.52 76.3462 21.52C76.1262 21.52 75.9162 21.57 75.7162 21.67C75.5162 21.77 75.3162 21.885 75.1162 22.015C74.9262 22.155 74.7312 22.275 74.5312 22.375C74.3412 22.475 74.1412 22.525 73.9312 22.525C73.6512 22.525 73.4162 22.44 73.2262 22.27C73.0362 22.11 72.9112 21.835 72.8512 21.445L71.9812 16.075C71.9412 15.805 71.9812 15.575 72.1012 15.385C72.2212 15.195 72.4212 15.05 72.7012 14.95C73.0112 14.84 73.2812 14.845 73.5112 14.965C73.7412 15.075 73.9412 15.295 74.1112 15.625C74.8012 16.905 75.4512 17.895 76.0612 18.595C76.6812 19.295 77.2912 19.78 77.8912 20.05C78.5012 20.31 79.1212 20.44 79.7512 20.44C80.5912 20.44 81.2612 20.245 81.7612 19.855C82.2712 19.455 82.5262 18.88 82.5262 18.13C82.5262 17.63 82.4062 17.19 82.1662 16.81C81.9262 16.43 81.4562 16.065 80.7562 15.715C80.0562 15.365 79.0162 14.99 77.6362 14.59C76.0662 14.12 74.8062 13.56 73.8562 12.91C72.9162 12.26 72.2312 11.475 71.8012 10.555C71.3812 9.625 71.1712 8.525 71.1712 7.255C71.1712 5.965 71.4862 4.82 72.1162 3.82C72.7562 2.82 73.6612 2.04 74.8312 1.48C76.0012 0.909999 77.3762 0.624999 78.9562 0.624999C79.7562 0.624999 80.4362 0.694999 80.9962 0.835C81.5662 0.974999 82.0512 1.12 82.4512 1.27C82.8512 1.41 83.1962 1.48 83.4862 1.48C83.7262 1.48 83.9512 1.405 84.1612 1.255C84.3812 1.095 84.6112 0.934999 84.8512 0.774999C85.0912 0.604999 85.3762 0.519999 85.7062 0.519999C85.9962 0.519999 86.2412 0.614999 86.4412 0.804998C86.6412 0.994999 86.8162 1.35 86.9662 1.87L88.3312 7.03C88.4212 7.37 88.4062 7.67 88.2862 7.93C88.1762 8.18 87.9712 8.355 87.6712 8.455C87.3712 8.555 87.1012 8.545 86.8612 8.425C86.6312 8.305 86.4412 8.1 86.2912 7.81C85.5812 6.48 84.8512 5.44 84.1012 4.69C83.3612 3.93 82.6262 3.395 81.8962 3.085C81.1662 2.765 80.4562 2.605 79.7662 2.605C78.9662 2.605 78.3462 2.83 77.9062 3.28C77.4662 3.73 77.2462 4.315 77.2462 5.035C77.2462 5.505 77.3562 5.935 77.5762 6.325C77.7962 6.715 78.2462 7.105 78.9262 7.495C79.6062 7.875 80.6212 8.3 81.9712 8.77C83.5312 9.31 84.7762 9.905 85.7062 10.555C86.6362 11.205 87.3062 11.955 87.7162 12.805C88.1362 13.655 88.3462 14.655 88.3462 15.805C88.3462 17.035 88.0212 18.15 87.3712 19.15C86.7312 20.15 85.8062 20.95 84.5962 21.55C83.3962 22.14 81.9512 22.435 80.2612 22.435Z" fill="#5F9DF7"/>
</svg>
