<svg width="14" height="20" viewBox="0 0 14 20" fill="none" xmlns="http://www.w3.org/2000/svg">
<path d="M0.146844 18.1047V2.95055C0.146844 1.63719 0.988744 0.81213 2.31895 0.81213H11.6893C13.0195 0.81213 13.8614 1.63719 13.8614 2.95055V18.1047C13.8614 18.6183 13.4404 19.0393 12.9269 19.0393C12.4049 19.0393 11.984 18.6183 11.984 18.1047V3.15261C11.984 2.86636 11.8072 2.68115 11.5293 2.68115H2.47891C2.20108 2.68115 2.02428 2.86636 2.02428 3.15261V18.1047C2.02428 18.6183 1.60333 19.0393 1.08135 19.0393C0.567794 19.0393 0.146844 18.6183 0.146844 18.1047ZM3.03456 18.3994V3.91032C3.03456 3.71668 3.1861 3.61566 3.39658 3.69985L5.98963 4.81957C6.2001 4.91218 6.29271 5.00479 6.29271 5.20685V17.1029C6.29271 17.3134 6.2001 17.406 5.98121 17.4902L3.39658 18.6099C3.1861 18.6941 3.03456 18.6015 3.03456 18.3994Z" fill="#5F9DF7"/>
</svg>
