<svg width="14" height="20" viewBox="0 0 14 20" fill="none" xmlns="http://www.w3.org/2000/svg">
<path d="M0.146844 18.1047C0.146844 18.6183 0.567794 19.0393 1.08135 19.0393C1.60333 19.0393 2.02428 18.6183 2.02428 18.1047V3.15261C2.02428 2.86636 2.20108 2.68115 2.47891 2.68115H11.5293C11.8072 2.68115 11.984 2.86636 11.984 3.15261V18.1047C11.984 18.6183 12.4049 19.0393 12.9269 19.0393C13.4404 19.0393 13.8614 18.6183 13.8614 18.1047V2.95055C13.8614 1.63719 13.0195 0.81213 11.6893 0.81213H2.31895C0.988744 0.81213 0.146844 1.63719 0.146844 2.95055V18.1047ZM3.03456 18.3994C3.03456 18.6015 3.1861 18.6941 3.39658 18.6099L5.98121 17.4902C6.2001 17.406 6.29271 17.3134 6.29271 17.1029V5.20685C6.29271 5.00479 6.2001 4.91218 5.98963 4.81957L3.39658 3.69985C3.1861 3.61566 3.03456 3.71668 3.03456 3.91032V18.3994Z" fill="#959595"/>
</svg>
